# xmcd
#
# Track frame offsets:
#	150
#	20929
#	43434
#	64154
#	86733
#	110362
#	136466
#	155530
#	174829
#	197657
#	219711
#	235165
#	254349
#	275427
#	295007
#	312786
#	329215
#
# Disc length: 4640 seconds
#
# Revision: 0
# Processed by: cddbd v1.5.2PL0 Copyright (c) Steve Scherf et al.
# Submitted via: EZCDAudioConverter 9.0.6.1
#
DISCID=08121e11
DTITLE=Various Artist - Saturday Night Blues Party Vol. 2
DYEAR=1900
DGENRE=Blues
TTITLE0=Wilson Meadows - IM FALLING
TTITLE1=Wilson Meadows - Tell Me You Love Me
TTITLE2=J-Wonn - Daddy's Girl
TTITLE3=Terry Wright - Anytime Man
TTITLE4=Tonya - The Letter
TTITLE5=Terry Wright - Two Women In Love With Your Husband
TTITLE6=Terry Wright - I Done Lost My Good Thang
TTITLE7=Terry Wright - She Was Playing Too
TTITLE8=Wendell Brown - Stl. Thang
TTITLE9=Wendell Brown - Wrong Place, Wrong Time
TTITLE10=Wilson Meadows - That's Still My Love
TTITLE11=Wilson Meadows - I'm changing
TTITLE12=Wilson Meadows - Where Will This Leave Me
TTITLE13=Wilson Meadows - I Promise
TTITLE14=Wilson Meadows - I Got The Right One
TTITLE15=Wilson Meadows - Memories Keep Hangin On
TTITLE16=Betty Padgett - Old Man Young Man
EXTD=
EXTT0=
EXTT1=
EXTT2=
EXTT3=
EXTT4=
EXTT5=
EXTT6=
EXTT7=
EXTT8=
EXTT9=
EXTT10=
EXTT11=
EXTT12=
EXTT13=
EXTT14=
EXTT15=
EXTT16=
PLAYORDER=
